<svg id="twotone-category-24px" xmlns="http://www.w3.org/2000/svg" width="50" height="50" viewBox="0 0 50 50">
  <path id="Path_146" data-name="Path 146" d="M0,0H50V50H0Z" fill="none"/>
  <circle id="Ellipse_4" data-name="Ellipse 4" cx="5.208" cy="5.208" r="5.208" transform="translate(31.25 31.25)" fill="#f6ad01"/>
  <path id="Path_147" data-name="Path 147" d="M5,25.965h8.333V34.3H5ZM19.583,5.84l-4.021,6.583H23.6Z" transform="translate(5.417 6.327)" fill="#f6ad01"/>
  <path id="Path_148" data-name="Path 148" d="M21.75,2,10.292,20.75H33.208Zm0,8,4.021,6.583H17.708ZM33.208,24.917a9.375,9.375,0,1,0,9.375,9.375A9.362,9.362,0,0,0,33.208,24.917Zm0,14.583a5.208,5.208,0,1,1,5.208-5.208A5.21,5.21,0,0,1,33.208,39.5ZM19.667,25.958H3V42.625H19.667ZM15.5,38.458H7.167V30.125H15.5Z" transform="translate(3.25 2.167)" fill="#263238"/>
</svg>
