<svg id="twotone-group_work-24px" xmlns="http://www.w3.org/2000/svg" width="50" height="50" viewBox="0 0 50 50">
  <path id="Path_152" data-name="Path 152" d="M0,0H50V50H0Z" fill="none"/>
  <path id="Path_153" data-name="Path 153" d="M20.667,4A16.667,16.667,0,1,0,37.333,20.667,16.689,16.689,0,0,0,20.667,4ZM12.333,29A4.167,4.167,0,1,1,16.5,24.833,4.179,4.179,0,0,1,12.333,29Zm8.333-12.5a4.167,4.167,0,1,1,4.167-4.167A4.179,4.179,0,0,1,20.667,16.5ZM29,29a4.167,4.167,0,1,1,4.167-4.167A4.179,4.179,0,0,1,29,29Z" transform="translate(4.333 4.333)" fill="#f6ad01"/>
  <path id="Path_154" data-name="Path 154" d="M22.833,2A20.833,20.833,0,1,0,43.667,22.833,20.841,20.841,0,0,0,22.833,2Zm0,37.5A16.667,16.667,0,1,1,39.5,22.833,16.689,16.689,0,0,1,22.833,39.5Z" transform="translate(2.167 2.167)" fill="#263238"/>
  <circle id="Ellipse_5" data-name="Ellipse 5" cx="4.167" cy="4.167" r="4.167" transform="translate(12.5 25)" fill="#263238"/>
  <circle id="Ellipse_6" data-name="Ellipse 6" cx="4.167" cy="4.167" r="4.167" transform="translate(20.833 12.5)" fill="#263238"/>
  <circle id="Ellipse_7" data-name="Ellipse 7" cx="4.167" cy="4.167" r="4.167" transform="translate(29.167 25)" fill="#263238"/>
</svg>
