<svg id="twotone-sentiment_very_satisfied-24px" xmlns="http://www.w3.org/2000/svg" width="50" height="50" viewBox="0 0 50 50">
  <path id="Path_155" data-name="Path 155" d="M0,0H50V50H0Z" fill="none"/>
  <path id="Path_156" data-name="Path 156" d="M20.667,4A16.667,16.667,0,1,0,37.333,20.667,16.662,16.662,0,0,0,20.667,4Zm-6.5,7.958,4.417,4.417-2.208,2.208-2.208-2.208-2.208,2.208L9.75,16.375l4.417-4.417Zm6.5,20.167a11.45,11.45,0,0,1-10.646-7.292H31.313A11.45,11.45,0,0,1,20.667,32.125Zm8.708-13.542-2.208-2.208-2.208,2.208L22.75,16.375l4.417-4.417,4.417,4.417Z" transform="translate(4.333 4.333)" fill="#f6ad01"/>
  <path id="Path_157" data-name="Path 157" d="M16.333,18.542l2.208,2.208,2.208-2.208-4.417-4.417-4.417,4.417,2.208,2.208Zm8.583,0,2.208,2.208,2.208-2.208,2.208,2.208,2.208-2.208-4.417-4.417ZM22.812,2A20.833,20.833,0,1,0,43.667,22.833,20.81,20.81,0,0,0,22.812,2Zm.021,37.5A16.667,16.667,0,1,1,39.5,22.833,16.662,16.662,0,0,1,22.833,39.5Zm0-5.208A11.451,11.451,0,0,0,33.479,27H12.188A11.45,11.45,0,0,0,22.833,34.292Z" transform="translate(2.167 2.167)" fill="#263238"/>
</svg>
