<svg id="twotone-access_time-24px" xmlns="http://www.w3.org/2000/svg" width="50" height="50" viewBox="0 0 50 50">
  <path id="Path_149" data-name="Path 149" d="M0,0H50V50H0Z" fill="none"/>
  <path id="Path_150" data-name="Path 150" d="M20.667,4A16.667,16.667,0,1,0,37.333,20.667,16.662,16.662,0,0,0,20.667,4Zm8.854,25.313L18.583,22.75V10.25h3.125V21.188l9.375,5.562Z" transform="translate(4.333 4.333)" fill="#f6ad01"/>
  <path id="Path_151" data-name="Path 151" d="M22.813,2A20.833,20.833,0,1,0,43.667,22.833,20.823,20.823,0,0,0,22.813,2Zm.021,37.5A16.667,16.667,0,1,1,39.5,22.833,16.662,16.662,0,0,1,22.833,39.5Zm1.042-27.083H20.75v12.5l7.993,4.8,2.944,1.766,1.563-2.562-9.375-5.562Z" transform="translate(2.167 2.167)" fill="#263238"/>
</svg>
